<mxfile host="app.diagrams.net" modified="2023-05-10T08:36:54.529Z" agent="Mozilla/5.0 (Macintosh; Intel Mac OS X 10_15_7) AppleWebKit/537.36 (KHTML, like Gecko) Chrome/111.0.0.0 Safari/537.36" version="21.2.9" etag="kGRCobpR0ouyzgHcV4_2" type="github">
  <diagram name="Сторінка-1" id="KtpxEThRmqGp1cg1sZwK">
    <mxGraphModel>
      <root>
        <mxCell id="0" />
        <mxCell id="1" parent="0" />
      </root>
    </mxGraphModel>
  </diagram>
</mxfile>
